<svg height="512pt" viewBox="0 -31 512 512" width="512pt" xmlns="http://www.w3.org/2000/svg"><path d="m225 240c-8.285156 0-15 6.714844-15 15v30c0 8.285156 6.714844 15 15 15s15-6.714844 15-15v-30c0-8.285156-6.714844-15-15-15zm0 0"/><path d="m287 240c-8.285156 0-15 6.714844-15 15v30c0 8.285156 6.714844 15 15 15s15-6.714844 15-15v-30c0-8.285156-6.714844-15-15-15zm0 0"/><path d="m77.902344 356.449219c30.484375 60.398437 93.734375 93.550781 179.097656 93.550781 93.734375 0 149.855469-39.308594 177.101562-93.554688 44.804688-11.980468 77.898438-52.917968 77.898438-101.445312v-30c0-6.957031-4.78125-13-11.554688-14.597656-6.769531-1.601563-13.75 1.667968-16.863281 7.890625l-5.125 10.246093c-5.679687 11.367188-13.917969 20.8125-23.820312 27.804688-.683594-29.640625-6.324219-60.558594-16.652344-90.867188 44.101563-22.300781 74.015625-68.089843 74.015625-120.476562v-30c0-8.285156-6.714844-15-15-15h-30c-39.867188 0-76.996094 17.335938-102.480469 47.113281-32.75-30.878906-69.648437-47.113281-107.519531-47.113281-38.234375 0-75.597656 16.496094-108.859375 47.871094-25.5-30.246094-62.929687-47.871094-103.140625-47.871094h-30c-8.285156 0-15 6.714844-15 15v30c0 53.023438 30.523438 98.640625 74.386719 120.652344-10.503907 30.289062-16.261719 61.15625-16.996094 90.707031-9.917969-6.996094-18.164063-16.445313-23.851563-27.820313l-5.125-10.246093c-3.109374-6.222657-10.089843-9.488281-16.859374-7.890625-6.773438 1.597656-11.554688 7.640625-11.554688 14.597656v30c0 48.53125 33.097656 89.46875 77.902344 101.449219zm179.097656 63.550781c-65.503906 0-114.027344-20.648438-142.046875-60.011719h282.140625c-27.84375 39.363281-75.699219 60.011719-140.09375 60.011719zm-80.335938-100.308594c-18.441406-7.292968-26.664062-17.992187-26.664062-34.691406 0-40.652344 49-75 107-75 28.828125 0 55.765625 8.296875 75.851562 23.359375 18.796876 14.097656 29.148438 32.4375 29.148438 51.640625 0 22.253906-12.476562 45-105 45-36.519531 0-62.796875-3.371094-80.335938-10.308594zm302.601563-44.585937c-8.8125 31.621093-37.871094 54.894531-72.265625 54.894531h-32.382812c9.101562-9.34375 13.753906-19.921875 15.867187-30h20.894531c24.898438 0 48.945313-8.851562 67.886719-24.894531zm-12.265625-245.105469h15v15c0 38.695312-21.632812 74.199219-55.046875 92.355469-11.257813-25.222657-25.398437-48.328125-41.789063-68.148438 19.859376-24.726562 49.703126-39.207031 81.835938-39.207031zm-437 15v-15h15c32.460938 0 62.597656 14.769531 82.449219 39.96875-16.398438 19.75-30.578125 42.6875-41.890625 67.664062-33.707032-18.074218-55.558594-53.738281-55.558594-92.632812zm227-15c93.265625 0 170.636719 129.359375 167.617188 238.84375-4.316407.761719-8.742188 1.15625-13.238282 1.15625h-20.726562c-4.164063-23.097656-17.925782-44.234375-39.800782-60.640625-25.242187-18.933594-58.574218-29.359375-93.851562-29.359375-68.898438 0-126.070312 39.183594-135.597656 90h-20.78125c-4.492188 0-8.917969-.394531-13.230469-1.15625-2.886719-109.796875 76.5625-238.84375 169.609375-238.84375zm-156.378906 270h20.933594c2.160156 10.078125 6.925781 20.652344 16.238281 30h-32.792969c-34.394531 0-63.453125-23.273438-72.265625-54.894531 18.78125 15.910156 42.777344 24.894531 67.886719 24.894531zm0 0"/><path d="m180 135c0 8.285156-6.714844 15-15 15s-15-6.714844-15-15 6.714844-15 15-15 15 6.714844 15 15zm0 0"/><path d="m362 135c0 8.285156-6.714844 15-15 15s-15-6.714844-15-15 6.714844-15 15-15 15 6.714844 15 15zm0 0"/></svg>